<svg width="586" height="50" viewBox="0 0 586 50" fill="none" xmlns="http://www.w3.org/2000/svg">
<rect x="516" width="70" height="48" rx="6" fill="white"/>
<path fill-rule="evenodd" clip-rule="evenodd" d="M546.088 36.8965L546.542 33.9983L545.53 33.9746H540.696L544.056 12.5874C544.066 12.5226 544.1 12.4625 544.149 12.4197C544.199 12.3769 544.262 12.3535 544.328 12.3535H552.479C555.185 12.3535 557.053 12.9188 558.028 14.0346C558.485 14.5581 558.776 15.1053 558.917 15.7072C559.065 16.339 559.067 17.0937 558.923 18.0143L558.912 18.0812V18.6712L559.37 18.9312C559.754 19.1363 560.06 19.3709 560.295 19.6395C560.686 20.0872 560.939 20.6561 561.046 21.3304C561.156 22.024 561.12 22.8495 560.939 23.7841C560.73 24.8589 560.393 25.7951 559.938 26.5611C559.519 27.2669 558.985 27.8524 558.352 28.306C557.747 28.7371 557.029 29.0643 556.216 29.2738C555.429 29.4796 554.531 29.5834 553.546 29.5834H552.912C552.459 29.5834 552.018 29.7474 551.672 30.0414C551.325 30.3415 551.096 30.7516 551.026 31.2001L550.978 31.4611L550.175 36.5695L550.139 36.757C550.129 36.8164 550.112 36.8459 550.088 36.866C550.066 36.8843 550.035 36.8965 550.005 36.8965H546.088" fill="#28356A"/>
<path fill-rule="evenodd" clip-rule="evenodd" d="M559.803 18.1494C559.779 18.3055 559.751 18.4651 559.72 18.6291C558.645 24.1704 554.967 26.0847 550.27 26.0847H547.879C547.305 26.0847 546.82 26.5033 546.731 27.0722L545.16 37.0788C545.102 37.4524 545.389 37.789 545.764 37.789H550.005C550.508 37.789 550.934 37.4226 551.013 36.9253L551.055 36.709L551.854 31.6206L551.905 31.3415C551.983 30.8424 552.411 30.4759 552.913 30.4759H553.547C557.657 30.4759 560.874 28.8008 561.814 23.9531C562.206 21.9281 562.003 20.2372 560.964 19.048C560.649 18.6895 560.259 18.3918 559.803 18.1494" fill="#298FC2"/>
<path fill-rule="evenodd" clip-rule="evenodd" d="M558.678 17.6992C558.514 17.6511 558.344 17.6076 558.17 17.5683C557.996 17.5299 557.817 17.4959 557.632 17.4661C556.988 17.3615 556.281 17.3119 555.524 17.3119H549.136C548.978 17.3119 548.829 17.3476 548.695 17.4121C548.4 17.5543 548.182 17.8344 548.129 18.1773L546.769 26.8203L546.73 27.0723C546.82 26.5034 547.304 26.0847 547.878 26.0847H550.27C554.967 26.0847 558.644 24.1695 559.719 18.6291C559.751 18.4652 559.778 18.3056 559.802 18.1494C559.53 18.0045 559.236 17.8806 558.919 17.775C558.84 17.7489 558.759 17.7237 558.678 17.6992" fill="#22284F"/>
<path fill-rule="evenodd" clip-rule="evenodd" d="M548.129 18.1773C548.182 17.8344 548.401 17.5544 548.696 17.4131C548.83 17.3483 548.979 17.3127 549.136 17.3127H555.525C556.281 17.3127 556.988 17.3625 557.633 17.4671C557.817 17.4967 557.996 17.5309 558.171 17.5693C558.345 17.6084 558.514 17.6521 558.678 17.7C558.76 17.7245 558.841 17.7499 558.92 17.775C559.237 17.8806 559.532 18.0055 559.803 18.1494C560.123 16.1017 559.801 14.7075 558.698 13.445C557.482 12.0549 555.288 11.46 552.481 11.46H544.33C543.756 11.46 543.267 11.8787 543.178 12.4486L539.783 34.0558C539.716 34.4832 540.045 34.8689 540.474 34.8689H545.506L548.129 18.1773" fill="#28356A"/>
<rect x="430" y="1" width="70" height="48" rx="6" fill="white"/>
<path d="M470.19 25.2539C470.19 32.8787 464.08 39.0599 456.542 39.0599C449.005 39.0599 442.895 32.8787 442.895 25.2539C442.895 17.6291 449.005 11.4479 456.542 11.4479C464.08 11.4479 470.19 17.6291 470.19 25.2539Z" fill="#ED0006"/>
<path d="M487.895 25.2539C487.895 32.8787 481.785 39.0599 474.247 39.0599C466.71 39.0599 460.6 32.8787 460.6 25.2539C460.6 17.6291 466.71 11.4479 474.247 11.4479C481.785 11.4479 487.895 17.6291 487.895 25.2539Z" fill="#0099DF"/>
<path fill-rule="evenodd" clip-rule="evenodd" d="M465.395 14.7461C468.329 17.2783 470.19 21.0463 470.19 25.2539C470.19 29.4615 468.329 33.2295 465.395 35.7618C462.461 33.2295 460.6 29.4615 460.6 25.2539C460.6 21.0463 462.461 17.2783 465.395 14.7461Z" fill="#6C6BBD"/>
<rect x="344" y="2" width="70" height="48" rx="6" fill="white"/>
<path fill-rule="evenodd" clip-rule="evenodd" d="M387.864 19.7019C387.864 18.5746 388.783 17.6602 389.915 17.6602C391.049 17.6602 391.967 18.5746 391.967 19.7019C391.967 20.8298 391.049 21.7422 389.915 21.7422C388.783 21.7422 387.864 20.8298 387.864 19.7019ZM393.761 19.3299L397.921 18.5892V34.4789H393.761V19.3299ZM399.837 19.3299V34.4789H404V18.5892L399.837 19.3299ZM387.836 22.8569V34.4789H391.997V22.8569H387.836ZM379.689 27.9408C379.689 24.5272 381.642 22.8098 385.488 22.6865C385.488 22.6865 386.182 22.66 386.592 22.7468V26.1438C384.155 26.2274 383.885 27.1033 383.885 29.1463V34.4789H379.689V27.9408ZM374.196 22.8436C374.191 22.8567 374.184 22.8751 374.175 22.8984C374.026 23.2875 373.348 25.0586 371.826 26.8898V18.5892L367.531 19.4347V34.4789H371.826V29.828C373.07 31.6846 373.684 34.4789 373.684 34.4789H378.828C378.32 32.3743 376.094 28.4945 376.094 28.4945C378.092 25.9734 378.969 23.2886 379.109 22.8436H374.196ZM358.584 23.2972C358.584 24.388 359.802 24.4669 360.328 24.5007C364.186 24.758 366.485 26.6365 366.485 29.5269C366.485 32.0772 364.429 34.6493 359.843 34.6493C357.717 34.6493 355.902 34.4411 354.293 34.0201V30.3081C355.368 30.7477 357.138 31.2092 358.962 31.2092C360.626 31.2092 361.616 30.6615 361.616 29.7305C361.616 28.6073 360.416 28.5341 359.955 28.5061L359.95 28.5058C354.579 28.1417 354 24.9801 354 23.638C354 21.3072 355.662 18.5892 360.354 18.5892C363.076 18.5892 364.543 19.0116 365.807 19.4512L365.87 19.4705V23.0757L365.823 23.0625C365.315 22.8489 364.72 22.6394 364.72 22.6394C363.649 22.3205 362.152 21.9809 360.995 21.9809C360.337 21.9809 358.584 21.9809 358.584 23.2972Z" fill="#862165"/>
<rect x="258" y="1" width="70" height="48" rx="6" fill="white"/>
<path d="M287.5 48L327 36.5V43C327 45.7614 324.761 48 322 48H287.5Z" fill="#FD6020"/>
<path fill-rule="evenodd" clip-rule="evenodd" d="M319.503 20.2217C321.676 20.2217 322.871 21.1888 322.871 23.0155C322.98 24.4124 322.002 25.5944 320.698 25.8093L323.632 29.7851H321.35L318.851 25.9168H318.633V29.7851H316.786V20.2217H319.503ZM318.633 24.6273H319.177C320.372 24.6273 320.915 24.09 320.915 23.1229C320.915 22.2633 320.372 21.726 319.177 21.726H318.633V24.6273ZM310.376 29.7851H315.591V28.1733H312.223V25.5944H315.482V23.9826H312.223V21.8335H315.591V20.2217H310.376V29.7851V29.7851ZM304.943 26.6689L302.444 20.2217H300.488L304.508 30H305.486L309.506 20.2217H307.551L304.943 26.6689V26.6689ZM282.886 25.0571C282.886 27.7435 285.059 30 287.775 30C288.644 30 289.405 29.7851 290.166 29.4627V27.3137C289.622 27.9584 288.862 28.3882 287.993 28.3882C286.254 28.3882 284.842 27.0987 284.842 25.3795V25.1646C284.733 23.4453 286.145 21.941 287.884 21.8335C288.753 21.8335 289.622 22.2633 290.166 22.908V20.759C289.514 20.3291 288.644 20.2217 287.884 20.2217C285.059 20.0068 282.886 22.2633 282.886 25.0571V25.0571ZM279.517 23.8751C278.431 23.4453 278.105 23.2304 278.105 22.6931C278.214 22.0484 278.757 21.5111 279.409 21.6186C279.952 21.6186 280.495 21.941 280.93 22.3708L281.908 21.0813C281.147 20.4366 280.169 20.0068 279.191 20.0068C277.67 19.8993 276.366 21.0813 276.258 22.5857V22.6931C276.258 23.9826 276.801 24.7348 278.54 25.272C278.974 25.3795 279.409 25.5944 279.843 25.8093C280.169 26.0242 280.387 26.3466 280.387 26.7764C280.387 27.5286 279.735 28.1733 279.083 28.1733H278.974C278.105 28.1733 277.344 27.636 277.018 26.8838L275.823 28.0658C276.475 29.2478 277.779 29.8925 279.083 29.8925C280.821 30 282.234 28.7106 282.342 26.9913V26.6689C282.234 25.3795 281.691 24.7348 279.517 23.8751V23.8751ZM273.215 29.7851H275.063V20.2217H273.215V29.7851V29.7851ZM264.632 20.2217H267.348H267.891C270.499 20.3292 272.563 22.4782 272.455 25.0571C272.455 26.454 271.803 27.7435 270.716 28.7106C269.738 29.4627 268.543 29.8926 267.348 29.7851H264.632V20.2217ZM267.022 28.1733C267.891 28.2807 268.869 27.9584 269.521 27.4211C270.173 26.7764 270.499 25.9168 270.499 24.9497C270.499 24.09 270.173 23.2304 269.521 22.5857C268.869 22.0484 267.891 21.7261 267.022 21.8335H266.479V28.1733H267.022Z" fill="black"/>
<path fill-rule="evenodd" clip-rule="evenodd" d="M295.707 20C292.991 20 290.709 22.1491 290.709 24.9429C290.709 27.6292 292.882 29.8858 295.707 29.9932C298.532 30.1007 300.705 27.8441 300.814 25.0503C300.705 22.2565 298.532 20 295.707 20V20Z" fill="#FD6020"/>
<rect x="172" y="1" width="70" height="48" rx="6" fill="#1F72CD"/>
<path fill-rule="evenodd" clip-rule="evenodd" d="M184.549 18L178 32.4935H185.84L186.812 30.1826H189.034L190.006 32.4935H198.636V30.7298L199.405 32.4935H203.87L204.639 30.6925V32.4935H222.587L224.769 30.2426L226.813 32.4935L236.032 32.5121L229.462 25.2872L236.032 18H226.956L224.832 20.2093L222.852 18H203.327L201.65 21.7409L199.934 18H192.11V19.7037L191.24 18H184.549ZM186.066 20.0581H189.888L194.232 29.8862V20.0581H198.419L201.774 27.1048L204.867 20.0581H209.033V30.4581H206.498L206.477 22.3087L202.782 30.4581H200.514L196.798 22.3087V30.4581H191.584L190.595 28.1266H185.254L184.267 30.4561H181.474L186.066 20.0581ZM221.658 20.0581H211.352V30.452H221.499L224.769 27.0073L227.922 30.452H231.217L226.427 25.2852L231.217 20.0581H228.065L224.811 23.4633L221.658 20.0581ZM187.926 21.8177L186.166 25.9712H189.683L187.926 21.8177ZM213.897 24.1099V22.2114V22.2096H220.328L223.134 25.2458L220.204 28.2986H213.897V26.226H219.52V24.1099H213.897Z" fill="white"/>
<rect x="86" y="2" width="70" height="48" rx="6" fill="white"/>
<path fill-rule="evenodd" clip-rule="evenodd" d="M121.395 36.7618C119.012 38.8184 115.92 40.0599 112.542 40.0599C105.005 40.0599 98.8948 33.8787 98.8948 26.2539C98.8948 18.6291 105.005 12.4479 112.542 12.4479C115.92 12.4479 119.012 13.6894 121.395 15.746C123.778 13.6894 126.869 12.4479 130.247 12.4479C137.785 12.4479 143.895 18.6291 143.895 26.2539C143.895 33.8787 137.785 40.0599 130.247 40.0599C126.869 40.0599 123.778 38.8184 121.395 36.7618Z" fill="#ED0006"/>
<path fill-rule="evenodd" clip-rule="evenodd" d="M121.395 36.7618C124.329 34.2295 126.19 30.4615 126.19 26.2539C126.19 22.0463 124.329 18.2783 121.395 15.746C123.778 13.6894 126.869 12.4479 130.247 12.4479C137.785 12.4479 143.895 18.6291 143.895 26.2539C143.895 33.8787 137.785 40.0599 130.247 40.0599C126.869 40.0599 123.778 38.8184 121.395 36.7618Z" fill="#F9A000"/>
<path fill-rule="evenodd" clip-rule="evenodd" d="M121.395 15.7461C124.329 18.2783 126.19 22.0463 126.19 26.2539C126.19 30.4615 124.329 34.2295 121.395 36.7618C118.461 34.2295 116.6 30.4615 116.6 26.2539C116.6 22.0463 118.461 18.2783 121.395 15.7461Z" fill="#FF5E00"/>
<rect y="1" width="70" height="48" rx="6" fill="white"/>
<path fill-rule="evenodd" clip-rule="evenodd" d="M21.2505 33.5165H17.0099L13.8299 21.3847C13.679 20.8267 13.3585 20.3333 12.8871 20.1008C11.7106 19.5165 10.4142 19.0514 9 18.8169V18.3498H15.8313C16.7742 18.3498 17.4813 19.0514 17.5991 19.8663L19.2491 28.6173L23.4877 18.3498H27.6104L21.2505 33.5165ZM29.9675 33.5165H25.9626L29.2604 18.3498H33.2653L29.9675 33.5165ZM38.4467 22.5514C38.5646 21.7346 39.2717 21.2675 40.0967 21.2675C41.3931 21.1502 42.8052 21.3848 43.9838 21.9671L44.6909 18.7016C43.5123 18.2345 42.216 18 41.0395 18C37.1524 18 34.3239 20.1008 34.3239 23.0165C34.3239 25.2346 36.3274 26.3992 37.7417 27.1008C39.2717 27.8004 39.861 28.2675 39.7431 28.9671C39.7431 30.0165 38.5646 30.4836 37.3881 30.4836C35.9739 30.4836 34.5596 30.1338 33.2653 29.5494L32.5582 32.8169C33.9724 33.3992 35.5025 33.6338 36.9167 33.6338C41.2752 33.749 43.9838 31.6502 43.9838 28.5C43.9838 24.5329 38.4467 24.3004 38.4467 22.5514V22.5514ZM58 33.5165L54.82 18.3498H51.4044C50.6972 18.3498 49.9901 18.8169 49.7544 19.5165L43.8659 33.5165H47.9887L48.8116 31.3004H53.8772L54.3486 33.5165H58ZM51.9936 22.4342L53.1701 28.1502H49.8723L51.9936 22.4342Z" fill="#172B85"/>
</svg>
